<?xml version="1.0" standalone="no"?>
<!DOCTYPE svg PUBLIC "-//W3C//DTD SVG 20010904//EN"
 "http://www.w3.org/TR/2001/REC-SVG-20010904/DTD/svg10.dtd">
<svg version="1.0" xmlns="http://www.w3.org/2000/svg"
 width="480.000000pt" height="480.000000pt" viewBox="0 0 480.000000 480.000000"
 preserveAspectRatio="xMidYMid meet">
<metadata>
Created by potrace 1.11, written by Peter Selinger 2001-2013
</metadata>
<g transform="translate(0.000000,480.000000) scale(0.100000,-0.100000)"
fill="#000000" stroke="none">
<path d="M170 4796 c0 -2 68 -230 150 -507 83 -277 150 -509 150 -515 0 -8
-24 -6 -75 7 -96 23 -230 39 -322 39 l-73 0 0 -158 0 -159 99 -7 c319 -20 600
-149 808 -369 67 -71 171 -213 162 -221 -2 -2 -173 -132 -379 -290 l-375 -288
-103 -241 c-57 -133 -106 -248 -109 -254 -4 -10 88 -13 428 -15 l434 -3 -78
-77 c-211 -207 -485 -328 -784 -345 l-103 -6 0 -694 0 -693 462 0 c438 0 460
1 446 18 -8 9 -154 197 -324 417 -169 220 -348 451 -396 512 -48 62 -88 114
-88 116 0 2 36 7 80 11 100 8 240 37 350 71 97 31 279 116 360 168 l55 36 7
-27 c4 -15 19 -157 33 -317 60 -663 85 -922 90 -962 l6 -43 1860 0 1859 0 0
369 0 368 -65 -18 c-212 -58 -557 -84 -801 -60 -457 47 -886 233 -1216 527
-32 28 -78 75 -104 103 l-46 51 98 -49 c133 -66 253 -107 399 -136 691 -140
1393 171 1695 750 l40 77 0 471 0 472 -49 91 c-206 389 -603 663 -1077 744
-144 25 -381 27 -531 4 -173 -25 -390 -97 -515 -170 -32 -18 -58 -30 -58 -25
0 14 182 185 265 248 258 195 552 329 869 394 125 25 345 49 461 49 164 0 501
-46 593 -81 13 -5 28 -9 33 -9 5 0 9 126 9 315 l0 315 -2315 0 c-1273 0 -2315
-2 -2315 -4z m1843 -188 c-6 -7 -169 -325 -362 -705 -194 -381 -356 -693 -361
-693 -4 0 -20 17 -36 38 -128 170 -372 355 -585 443 -66 27 -78 36 -65 44 25
15 1151 728 1291 817 113 72 141 85 118 56z m528 -1430 c-5 -13 -49 -120 -99
-238 -50 -118 -131 -314 -182 -435 -50 -121 -94 -226 -97 -232 -4 -10 35 -13
164 -15 l169 -3 -69 -167 -70 -168 -171 0 -171 0 -76 -188 -76 -187 -377 -3
c-207 -1 -376 0 -376 3 0 3 12 34 26 68 15 34 47 112 71 172 24 61 47 116 50
123 4 9 -99 12 -496 12 -336 0 -501 3 -501 10 0 6 30 83 67 171 l67 160 244
187 c134 103 409 314 610 469 l367 282 467 1 468 0 -9 -22z m1952 11 c44 -23
78 -64 92 -112 16 -55 10 -82 -58 -242 l-34 -80 -352 -3 c-193 -1 -351 -1
-351 2 0 2 11 29 25 60 29 66 31 93 8 118 -14 16 -33 18 -162 18 -127 0 -150
-3 -178 -20 -39 -23 -41 -27 -124 -227 l-67 -163 442 0 c502 0 499 0 552 -80
47 -71 41 -115 -44 -315 -40 -93 -100 -237 -134 -318 -71 -169 -103 -213 -186
-254 l-57 -28 -720 -3 c-396 -2 -739 0 -763 3 -47 7 -103 49 -128 96 -18 36
-18 110 0 154 l15 35 74 0 74 0 63 153 c35 83 83 198 107 254 23 57 43 105 43
108 0 3 -31 5 -70 5 -38 0 -70 3 -70 6 0 15 286 694 306 726 13 20 38 48 57
62 75 58 37 55 860 56 542 0 765 -3 780 -11z m-2065 -1889 c160 -146 289 -266
288 -268 -2 -1 -48 9 -102 22 -54 14 -223 55 -374 91 -867 208 -1147 276
-1165 285 -12 5 147 9 416 9 l437 1 19 48 c11 26 33 77 48 114 l28 67 57 -52
c32 -29 188 -171 348 -317z"/>
<path d="M1278 2564 c-200 -157 -367 -290 -372 -295 -6 -5 93 -9 245 -9 l255
0 106 258 c59 141 114 274 122 295 9 20 14 37 12 37 -3 0 -168 -129 -368 -286z"/>
<path d="M3225 2290 c-11 -4 -29 -18 -41 -31 -22 -25 -174 -383 -174 -410 0
-9 8 -23 18 -32 16 -14 43 -17 167 -17 164 0 198 10 224 67 51 109 151 360
151 379 0 48 -20 54 -178 53 -81 0 -156 -4 -167 -9z"/>
</g>
</svg>
